<svg xmlns="http://www.w3.org/2000/svg" viewBox="0 0 358.38 341.59"><defs><style>.cls-1{fill:none;stroke:#ed1c24;stroke-miterlimit:10;stroke-width:2px;}.cls-2{fill:#ed1c24;}</style></defs><g id="Layer_2" data-name="Layer 2"><g id="Layer_2-2" data-name="Layer 2"><polygon class="cls-1" points="83.72 328.87 154.14 258.45 125.85 258.45 69.58 314.72 58.27 303.41 103.23 258.45 91.21 258.45 91.21 242.18 44.12 289.27 32.81 277.95 91.21 219.55 91.21 191.27 18.67 263.81 7.35 252.5 91.21 168.64 91.21 163.87 16.43 89.09 27.75 77.78 91.21 141.24 91.21 112.96 41.89 63.64 53.2 52.33 91.21 90.33 91.21 83.45 112.61 83.45 67.35 38.18 78.66 26.87 135.24 83.45 163.52 83.45 92.8 12.73 104.12 1.41 181.28 78.57 254.13 5.72 265.45 17.03 199.03 83.45 227.31 83.45 279.59 31.17 290.9 42.49 249.94 83.45 272.1 83.45 272.1 89.57 305.04 56.63 316.36 67.94 272.1 112.2 272.1 140.49 330.5 82.08 341.81 93.4 272.1 163.11 272.1 169.4 350.9 248.19 339.58 259.51 272.1 192.03 272.1 220.31 325.44 273.65 314.13 284.96 272.1 242.94 272.1 258.45 259.33 258.45 299.99 299.11 288.67 310.42 236.7 258.45 208.42 258.45 274.53 324.56 263.21 335.88 185.79 258.45 176.76 258.45 95.03 340.18 83.72 328.87"/><polygon class="cls-1" points="339.58 258.09 349.48 248.19 271.1 169.81 271.1 162.7 340.4 93.4 330.5 83.5 271.1 142.9 271.1 111.79 314.94 67.94 305.05 58.04 271.1 91.99 271.1 84.45 247.53 84.45 289.49 42.49 279.59 32.59 227.73 84.45 196.62 84.45 264.03 17.03 254.13 7.13 181.28 79.99 104.12 2.83 94.22 12.73 165.94 84.45 134.82 84.45 78.66 28.28 68.76 38.18 115.03 84.45 92.21 84.45 92.21 92.75 53.2 53.74 43.3 63.64 92.21 112.55 92.21 143.66 27.75 79.2 17.85 89.09 92.21 163.46 92.21 169.05 8.77 252.5 18.67 262.4 92.21 188.85 92.21 219.97 34.22 277.95 44.12 287.85 92.21 239.76 92.21 257.45 105.64 257.45 59.68 303.41 69.58 313.31 125.44 257.45 156.55 257.45 85.13 328.87 95.03 338.76 176.35 257.45 186.2 257.45 263.21 334.46 273.12 324.56 206 257.45 237.11 257.45 288.67 309 298.57 299.11 256.91 257.45 271.1 257.45 271.1 240.52 314.13 283.55 324.03 273.65 271.1 220.72 271.1 189.61 339.58 258.09"/><path class="cls-2" d="M156.08,162.09l-6.93-16.58H124.24l-6.93,16.58h-9.54l27.32-65h3.52l27.31,65Zm-16.57-40a78.58,78.58,0,0,1-2.71-7.83h-.2a60.84,60.84,0,0,1-2.71,7.83l-6.33,15.67h18.28Z"/><path class="cls-2" d="M170.43,162.09V137.56h3.73v21.33H185v3.2Z"/><path class="cls-2" d="M194.07,140.75v21.34h-3.73V140.75h-7.88v-3.19H202v3.19Z"/><path class="cls-2" d="M169.93,242.81c-17.27,0-35.15-11.55-35.15-33.25,0-22.19,18.58-33.34,34.55-33.34,8.84,0,16,2.11,20.69,5.12L188.21,190a33.66,33.66,0,0,0-17.77-5.12c-12.56,0-25.82,8.23-25.82,25,0,16.58,12.86,24.71,25.92,24.71,5.92,0,10.54-1.2,13.55-3.31V217.1H169.33v-7.84h24v26.62C187.21,240.8,179.47,242.81,169.93,242.81Z"/><path class="cls-2" d="M213.38,242.06c-6.53,0-13-4.8-13-12.76s6.46-12.72,13-12.72,13,4.84,13,12.72S219.92,242.06,213.38,242.06Zm0-22.18a9.52,9.52,0,1,0,9.23,9.5A9.19,9.19,0,0,0,213.38,219.88Z"/><path class="cls-2" d="M251.28,242.14l-11.49-12.57c-1.84-2-4-4.46-5.65-6.46l-.08,0c.08,2.23.08,4.31.08,6.15v12.3h-3.73V217.08H233l10.53,11.53c1.42,1.58,3.65,4,5.15,5.88l.08,0c-.08-1.88-.08-4-.08-5.76V217.08h3.73v25.06Z"/><path class="cls-2" d="M8,172.8c-1.93,4.71-4,6.88-6.82,8.06L0,179.65c2.67-1.1,4.38-2.88,6-6.46L.74,160.54h2l2.88,7c.41,1,.95,2.34,1.33,3.53H7c.44-1.13,1-2.58,1.42-3.53l2.87-7h1.81Z"/><path class="cls-2" d="M21.62,174.26a7,7,0,1,1,0-14,7,7,0,1,1,0,14Zm0-12.32a5.35,5.35,0,1,0,5.15,5.36A5.16,5.16,0,0,0,21.62,161.94Z"/><path class="cls-2" d="M41,174v-2h0c-.45,1.24-1.81,2.31-4.36,2.31-2.93,0-5.12-1.75-5.12-4.68v-9h1.87v8.86c0,1.86,1.33,3.23,3.7,3.23s3.82-1.37,3.82-3.23v-8.86h1.86V174Z"/><path class="cls-2" d="M53.13,162.47a4.72,4.72,0,0,0-1-.12c-2.07,0-4,1.33-4,4.77V174H46.26V160.54h1.86v3.05h0a4,4,0,0,1,4.15-3.22,4.47,4.47,0,0,1,1.27.17Z"/><path class="cls-2" d="M158.25,24V15.1c0-1.86-1.34-3.22-3.71-3.22s-3.82,1.36-3.82,3.22V24h-1.86V2.87h1.86v9.48h0c.48-1.13,1.87-2.1,4.24-2.1,3,0,5.12,1.74,5.12,4.68v9Z"/><path class="cls-2" d="M170,24.26a6.85,6.85,0,0,1-7.08-7,7.07,7.07,0,0,1,14.13,0A6.82,6.82,0,0,1,170,24.26Zm0-12.32a5.16,5.16,0,0,0-5.18,5.36,5.17,5.17,0,1,0,10.34,0A5.14,5.14,0,0,0,170,11.94Z"/><path class="cls-2" d="M197.22,24V14.87c0-1.75-.95-3-3.32-3s-3.46,1.24-3.46,3V24h-1.87V14.87c0-1.75-.92-3-3.29-3s-3.49,1.24-3.49,3V24h-1.87V10.54h1.75v1.81h0c.41-1.13,1.66-2.1,4-2.1a4.17,4.17,0,0,1,4.08,2.28c.51-1.28,2.17-2.28,4.36-2.28,2.93,0,4.91,1.66,4.91,4.47V24Z"/><path class="cls-2" d="M214.07,16.35l-1.13,1.09h-9.06a5.12,5.12,0,0,0,5.33,5.16,6.89,6.89,0,0,0,3.91-1.13l-.24,1.87a7.2,7.2,0,0,1-3.88.92,6.91,6.91,0,0,1-7.07-7,6.72,6.72,0,0,1,6.48-7c3.67,0,5.72,2.57,5.72,5.18A4.45,4.45,0,0,1,214.07,16.35Zm-5.57-4.47a4.82,4.82,0,0,0-4.5,4h8.2a2,2,0,0,0,0-.44A3.58,3.58,0,0,0,208.5,11.88Z"/><path class="cls-2" d="M312.83,169.8c-1.92,4.71-4,6.88-6.81,8.06l-1.21-1.21c2.66-1.1,4.38-2.88,5.95-6.46l-5.21-12.65h1.95l2.87,7c.42,1,.95,2.34,1.34,3.53h.06c.44-1.13,1-2.58,1.42-3.53l2.87-7h1.81Z"/><path class="cls-2" d="M326.43,171.26a7,7,0,1,1,7.05-7A6.85,6.85,0,0,1,326.43,171.26Zm0-12.32a5.35,5.35,0,0,0,0,10.69,5.35,5.35,0,0,0,0-10.69Z"/><path class="cls-2" d="M345.82,171v-2h0c-.44,1.24-1.8,2.31-4.35,2.31-2.93,0-5.13-1.75-5.13-4.68v-9h1.87v8.86c0,1.86,1.33,3.23,3.7,3.23s3.82-1.37,3.82-3.23v-8.86h1.87V171Z"/><path class="cls-2" d="M357.93,159.47a4.62,4.62,0,0,0-1-.12c-2.08,0-4,1.33-4,4.77V171h-1.87V157.54h1.87v3.05h0a4,4,0,0,1,4.14-3.22,4.54,4.54,0,0,1,1.28.17Z"/><path class="cls-2" d="M157.66,327.15a6.56,6.56,0,0,0-3.68-1.1,5.23,5.23,0,1,0,.06,10.46,7,7,0,0,0,3.65-.89l-.24,1.81a8,8,0,0,1-3.55.71,6.89,6.89,0,1,1,0-13.77,8.39,8.39,0,0,1,4.14,1Z"/><path class="cls-2" d="M163.34,338.4A3.22,3.22,0,0,1,161,335V316.87h1.87v17.95a2.27,2.27,0,0,0,1.71,2.31Z"/><path class="cls-2" d="M173.47,338.26a7,7,0,1,1,7.05-7A6.85,6.85,0,0,1,173.47,338.26Zm0-12.32a5.35,5.35,0,1,0,5.15,5.36A5.16,5.16,0,0,0,173.47,325.94Z"/><path class="cls-2" d="M192.87,338v-2h0c-.45,1.24-1.81,2.31-4.36,2.31-2.93,0-5.12-1.75-5.12-4.68v-9h1.87v8.86c0,1.86,1.33,3.23,3.7,3.23s3.82-1.37,3.82-3.23v-8.86h1.86V338Z"/><path class="cls-2" d="M208.38,338v-1.48h0a5.1,5.1,0,0,1-4.2,1.78,7,7,0,0,1,.18-14,5.89,5.89,0,0,1,4,1.39v-8.77h1.89V338Zm-.08-10.45a5.22,5.22,0,0,0-9,3.79,5.09,5.09,0,0,0,5.15,5.33,4.82,4.82,0,0,0,3.8-1.78Z"/></g></g></svg>